<svg xmlns="http://www.w3.org/2000/svg" viewBox="0 0 900 220" fill="none">
  <rect x="10" y="10" width="280" height="200" rx="16" fill="#fffbeb" stroke="#f59e0b" stroke-width="3"/>
  <circle cx="80" cy="80" r="28" fill="#f2c4a0"/>
  <rect x="62" y="112" width="36" height="48" rx="12" fill="#f59e0b"/>
  <circle cx="200" cy="90" r="36" stroke="#f59e0b" stroke-width="5" fill="#fff"/>
  <path d="M200 66 V90 L218 102" stroke="#f59e0b" stroke-width="4" stroke-linecap="round"/>
  <text x="150" y="190" text-anchor="middle" fill="#b45309" font-family="Arial,sans-serif" font-size="18" font-weight="800">waiting reply</text>
  <rect x="310" y="10" width="280" height="200" rx="16" fill="#ecfdf5" stroke="#12b89a" stroke-width="3"/>
  <circle cx="380" cy="80" r="28" fill="#f2c4a0"/>
  <path d="M368 82 Q380 92 392 82" stroke="#1e293b" stroke-width="3" fill="none"/>
  <rect x="362" y="112" width="36" height="48" rx="12" fill="#12b89a"/>
  <circle cx="500" cy="90" r="36" fill="#12b89a"/>
  <path d="M485 90 L495 100 L518 75" stroke="#fff" stroke-width="5" fill="none" stroke-linecap="round"/>
  <text x="450" y="190" text-anchor="middle" fill="#0f766e" font-family="Arial,sans-serif" font-size="18" font-weight="800">confirmed up</text>
  <rect x="610" y="10" width="280" height="200" rx="16" fill="#fff1f2" stroke="#e11d48" stroke-width="3"/>
  <circle cx="680" cy="80" r="28" fill="#f2c4a0"/>
  <path d="M668 78 L692 78" stroke="#1e293b" stroke-width="3" stroke-linecap="round"/>
  <rect x="662" y="112" width="36" height="48" rx="12" fill="#e11d48"/>
  <circle cx="800" cy="90" r="36" fill="#e11d48"/>
  <text x="800" y="100" text-anchor="middle" fill="#fff" font-family="Arial,sans-serif" font-size="28" font-weight="800">!</text>
  <text x="750" y="190" text-anchor="middle" fill="#be123c" font-family="Arial,sans-serif" font-size="18" font-weight="800">missed / open</text>
</svg>
